#!OML:ASF E:\Steps\Project 1\Capture day 1\Session 2\Subject.ASF
:FULLY-SPECIFIED
:DEGREES
344
root 3.65174 17.0905 16.0733 -151.292 0.142392 176.995
lowerback -29.4785 -2.7086 -8.5334
upperback -2.15839 -1.52558 -0.674264
thorax 13.2087 -1.51581 3.21699
lowerneck -0.672465 -2.77075 -1.76567
upperneck -0.00216235 -3.62918 5.86484
head 0.263189 -1.76984 2.11277
rclavicle -1.26228e-014 -7.15625e-015
rhumerus -43.1218 -24.5694 -69.9817
rradius 26.2509
rwrist 2.48725
rhand -5.17328 -57.3254
rfingers 7.12502
rthumb 20.6269 -86.2494
lclavicle -1.26228e-014 -7.15625e-015
lhumerus -32.9782 11.5593 77.2874
lradius 19.6474
lwrist -8.67401
lhand -20.9803 -13.9709
lfingers 7.12502
lthumb 5.39333 15.9405
rfemur -24.645 6.44236 17.6495
rtibia 8.5643
rfoot -19.8805 -4.41394
rtoes -3.75015
lfemur -22.882 -5.88723 -23.957
ltibia 4.40696
lfoot -5.85243 -5.13889
ltoes -21.7605
345
root 3.64999 17.0907 16.066 -151.293 0.0783003 177.029
lowerback -29.7288 -2.69362 -8.40878
upperback -2.04294 -1.49966 -0.717047
thorax 13.4486 -1.50229 3.10525
lowerneck -0.850382 -2.90177 -1.47855
upperneck -0.469167 -3.78151 5.72807
head 0.145337 -1.8488 2.01683
rclavicle 6.95746e-016 -4.77083e-014
rhumerus -42.6729 -24.6618 -70.234
rradius 26.1802
rwrist 2.46675
rhand -5.43434 -57.3701
rfingers 7.12502
rthumb 20.376 -86.3211
lclavicle 6.95746e-016 -4.77083e-014
lhumerus -32.7888 11.4804 77.3214
lradius 19.5431
lwrist -8.52823
lhand -21.122 -13.807
lfingers 7.12502
lthumb 5.25657 16.1078
rfemur -24.5667 6.47422 17.6975
rtibia 8.50524
rfoot -19.8612 -4.42976
rtoes -3.37657
lfemur -22.8593 -6.22265 -23.8433
ltibia 4.44231
lfoot -5.96636 -4.78247
ltoes -22.372
346
root 3.64931 17.0911 16.0581 -151.357 -0.000842614 177.056
lowerback -29.5762 -2.69701 -8.39743
upperback -2.1308 -1.54126 -0.663259
thorax 13.2861 -1.51696 3.14714
lowerneck -0.830632 -2.8909 -1.62953
upperneck -1.18191 -3.72713 5.82008
head -0.0765211 -1.82896 2.08104
rclavicle 4.17448e-015 -2.5842e-014
rhumerus -42.6136 -24.2785 -70.3303
rradius 26.264
rwrist 2.26768
rhand -5.64608 -56.7644
rfingers 7.12502
rthumb 20.1726 -85.737
lclavicle 4.17448e-015 -2.5842e-014
lhumerus -32.9448 11.6177 77.3027
lradius 19.4947
lwrist -8.5724
lhand -21.0018 -13.7401
lfingers 7.12502
lthumb 5.37259 16.1717
rfemur -24.3851 6.46913 17.7634
rtibia 8.39419
rfoot -19.8097 -4.47242
rtoes -3.05883
lfemur -22.7369 -6.17763 -23.8251
ltibia 4.39384
lfoot -6.01183 -4.89737
ltoes -23.1116
347
root 3.64938 17.0912 16.0524 -151.371 -0.0401708 177.108
lowerback -29.5016 -2.6682 -8.33939
upperback -2.20549 -1.54439 -0.654271
thorax 13.1671 -1.51356 3.12761
lowerneck -0.739415 -2.69098 -2.09292
upperneck -2.20051 -3.38652 6.24916
head -0.407331 -1.66381 2.31921
rclavicle 7.05686e-015 -2.06736e-014
rhumerus -42.6989 -23.8454 -70.5223
rradius 26.541
rwrist 1.9809
rhand -5.60354 -55.9731
rfingers 7.12502
rthumb 20.2134 -84.9414
lclavicle 7.05686e-015 -2.06736e-014
lhumerus -33.0291 11.7687 77.2066
lradius 19.4007
lwrist -8.64453
lhand -20.8603 -13.7339
lfingers 7.12502
lthumb 5.50927 16.1744
rfemur -24.2843 6.47979 17.8419
rtibia 8.28955
rfoot -19.7939 -4.49441
rtoes -2.94566
lfemur -22.6732 -5.98178 -23.8035
ltibia 4.30133
lfoot -5.90243 -5.13146
ltoes -23.1033
348
root 3.64998 17.0907 16.0446 -151.386 -0.0347217 177.11
lowerback -29.5378 -2.65528 -8.34401
upperback -2.2299 -1.52836 -0.671893
thorax 13.1523 -1.50796 3.11583
lowerneck -0.687066 -2.53489 -2.37426
upperneck -2.9311 -3.11676 6.55071
head -0.648671 -1.52988 2.48079
rclavicle -1.39149e-015 1.51076e-014
rhumerus -42.609 -23.8298 -70.5761
rradius 26.542
rwrist 2.06445
rhand -6.05623 -57.1461
rfingers 7.12502
rthumb 19.7783 -86.1598
lclavicle -1.39149e-015 1.51076e-014
lhumerus -33.0063 11.9939 77.0738
lradius 19.2234
lwrist -8.82642
lhand -20.8226 -13.7321
lfingers 7.12502
lthumb 5.54566 16.1753
rfemur -24.1963 6.48867 17.8446
rtibia 8.23075
rfoot -19.832 -4.46345
rtoes -2.84215
lfemur -22.6273 -5.9627 -23.8108
ltibia 4.28251
lfoot -5.81571 -5.1008
ltoes -23.2219
349
root 3.65135 17.0897 16.0356 -151.452 0.0295315 176.999
lowerback -29.5656 -2.66764 -8.4876
upperback -2.22614 -1.49404 -0.703125
thorax 13.1639 -1.5017 3.17048
lowerneck -0.560416 -2.45015 -2.54928
upperneck -3.5843 -2.9493 6.73834
head -0.879786 -1.44828 2.58667
rclavicle -6.85807e-015 -4.77083e-015
rhumerus -42.3824 -24.0698 -70.4715
rradius 26.3085
rwrist 2.39789
rhand -6.88231 -56.0364
rfingers 7.12502
rthumb 18.984 -85.1299
lclavicle -6.85807e-015 -4.77083e-015
lhumerus -33.0141 12.1254 77.0108
lradius 19.176
lwrist -8.89844
lhand -20.7956 -13.7002
lfingers 7.12502
lthumb 5.5717 16.2065
rfemur -24.0552 6.48982 17.7096
rtibia 8.18363
rfoot -19.8777 -4.46359
rtoes -3.06838
lfemur -22.5323 -5.91706 -23.9883
ltibia 4.32578
lfoot -5.86421 -5.05869
ltoes -23.7084
350
root 3.65145 17.0892 16.029 -151.49 0.047969 176.925
lowerback -29.5607 -2.62199 -8.54554
upperback -2.23948 -1.41413 -0.757753
thorax 13.135 -1.46838 3.17314
lowerneck -0.584489 -2.43603 -2.63191
upperneck -4.10541 -2.8847 6.80741
head -1.04209 -1.41399 2.63226
rclavicle 9.54166e-015 3.97569e-015
rhumerus -42.2286 -24.2268 -70.4386
rradius 26.23
rwrist 2.52124
rhand -6.87614 -55.4021
rfingers 7.12502
rthumb 18.9899 -84.4951
lclavicle 9.54166e-015 3.97569e-015
lhumerus -33.01 12.0199 77.0345
lradius 19.2382
lwrist -8.77138
lhand -20.7305 -13.6975
lfingers 7.12502
lthumb 5.63452 16.2076
rfemur -23.9201 6.44814 17.6404
rtibia 8.05694
rfoot -19.8402 -4.47621
rtoes -3.46517
lfemur -22.47 -5.90427 -24.1099
ltibia 4.35005
lfoot -5.89383 -5.07319
ltoes -22.873
351
root 3.65088 17.0892 16.0247 -151.488 0.00663192 176.915
lowerback -29.5661 -2.54059 -8.51223
upperback -2.26308 -1.31784 -0.809234
thorax 13.0973 -1.42233 3.13678
lowerneck -0.703418 -2.48288 -2.69902
upperneck -4.57396 -2.89933 6.89158
head -1.16776 -1.41575 2.67802
rclavicle -1.98785e-015 4.37326e-015
rhumerus -42.0786 -24.1106 -70.6106
rradius 26.3446
rwrist 2.35333
rhand -6.60281 -55.2164
rfingers 7.12502
rthumb 19.2528 -84.2834
lclavicle -1.98785e-015 4.37326e-015
lhumerus -32.9003 12.0056 77.0202
lradius 19.1656
lwrist -8.86161
lhand -20.6838 -13.6374
lfingers 7.12502
lthumb 5.67966 16.2665
rfemur -23.8353 6.40894 17.6527
rtibia 7.93276
rfoot -19.7886 -4.4659
rtoes -3.43575
lfemur -22.4777 -5.9734 -24.1124
ltibia 4.39874
lfoot -5.91755 -5.08239
ltoes -21.4321
352
root 3.65356 17.0892 16.0202 -151.496 -0.019428 176.862
lowerback -29.5691 -2.5226 -8.58931
upperback -2.28701 -1.27258 -0.8346
thorax 13.0647 -1.40631 3.16761
lowerneck -0.624075 -2.50485 -2.84983
upperneck -5.18414 -2.86345 7.12179
head -1.37438 -1.39518 2.79511
rclavicle -8.94531e-015 1.35174e-014
rhumerus -41.9059 -23.9435 -70.7969
rradius 26.4221
rwrist 2.16498
rhand -6.52284 -55.0895
rfingers 7.12502
rthumb 19.3297 -84.1489
lclavicle -8.94531e-015 1.35174e-014
lhumerus -32.8732 11.8114 77.0743
lradius 19.1941
lwrist -8.72741
lhand -20.785 -13.4333
lfingers 7.12502
lthumb 5.58191 16.4731
rfemur -23.7471 6.47556 17.5896
rtibia 7.83358
rfoot -19.7824 -4.54001
rtoes -3.21285
lfemur -22.4963 -6.29871 -24.0893
ltibia 4.52576
lfoot -6.08678 -4.8172
ltoes -21.9099
353
root 3.65689 17.0893 16.0159 -151.507 -0.0203565 176.795
lowerback -29.5898 -2.53805 -8.69635
upperback -2.28583 -1.25574 -0.852072
thorax 13.0723 -1.40552 3.21124
lowerneck -0.723735 -2.71665 -2.27145
upperneck -5.11589 -3.17043 6.65152
head -1.33168 -1.55249 2.52938
rclavicle -1.19271e-015 1.86858e-014
rhumerus -41.7095 -24.0083 -70.8578
rradius 26.396
rwrist 2.24497
rhand -6.5104 -54.8517
rfingers 7.12502
rthumb 19.3416 -83.9098
lclavicle -1.19271e-015 1.86858e-014
lhumerus -32.8577 11.5652 77.1428
lradius 19.3418
lwrist -8.43037
lhand -20.8427 -13.1434
lfingers 7.12502
lthumb 5.52625 16.7646
rfemur -23.674 6.5605 17.5017
rtibia 7.75689
rfoot -19.7742 -4.65961
rtoes -3.03054
lfemur -22.4792 -6.57979 -24.0913
ltibia 4.58422
lfoot -6.08695 -4.57039
ltoes -22.9303
354
root 3.65816 17.0907 16.0134 -151.555 -0.036963 176.769
lowerback -29.5456 -2.53004 -8.73057
upperback -2.27336 -1.23347 -0.851273
thorax 13.0645 -1.39556 3.2405
lowerneck -1.27757 -3.14558 -0.793263
upperneck -4.11643 -3.88732 5.10316
head -0.937461 -1.91601 1.73369
rclavicle 1.67973e-014 -3.33958e-014
rhumerus -41.5518 -23.9334 -70.9585
rradius 26.5019
rwrist 2.20709
rhand -6.66564 -55.2877
rfingers 7.12502
rthumb 19.1924 -84.3607
lclavicle 1.67973e-014 -3.33958e-014
lhumerus -32.7691 11.6248 77.1371
lradius 19.4052
lwrist -8.39253
lhand -20.6553 -12.9866
lfingers 7.12502
lthumb 5.70714 16.9165
rfemur -23.573 6.64546 17.46
rtibia 7.70518
rfoot -19.8107 -4.74149
rtoes -2.71587
lfemur -22.4237 -6.52606 -24.1399
ltibia 4.61164
lfoot -6.00045 -4.68334
ltoes -24.0258
355
root 3.6595 17.0931 16.0105 -151.623 -0.093845 176.774
lowerback -29.4726 -2.50919 -8.72157
upperback -2.26027 -1.20996 -0.841359
thorax 13.0452 -1.38134 3.25824
lowerneck -1.2967 -2.89921 -1.45149
upperneck -5.14181 -3.45764 5.509
head -1.25469 -1.68895 1.99623
rclavicle 1.2921e-015 7.15625e-015
rhumerus -41.3589 -23.481 -71.2584
rradius 26.7225
rwrist 1.6857
rhand -6.81544 -56.7085
rfingers 7.12502
rthumb 19.0483 -85.7958
lclavicle 1.2921e-015 7.15625e-015
lhumerus -32.6977 11.664 77.1623
lradius 19.4508
lwrist -8.4095
lhand -20.6121 -13.1906
lfingers 7.12502
lthumb 5.74886 16.7115
rfemur -23.4201 6.67971 17.4794
rtibia 7.60935
rfoot -19.8397 -4.75793
rtoes -2.34394
lfemur -22.379 -6.5069 -24.1339
ltibia 4.7118
lfoot -6.0983 -4.74419
ltoes -25.047
356
root 3.6603 17.0934 16.0043 -151.658 -0.107301 176.738
lowerback -29.452 -2.489 -8.75239
upperback -2.29471 -1.18117 -0.864009
thorax 12.992 -1.36951 3.26173
lowerneck -1.23669 -2.81066 -1.62703
upperneck -5.59227 -3.2921 5.67067
head -1.40998 -1.60195 2.08873
rclavicle 9.74045e-015 6.36111e-015
rhumerus -41.2549 -23.0631 -71.5265
rradius 26.936
rwrist 1.22121
rhand -6.73113 -57.0613
rfingers 7.12502
rthumb 19.1294 -86.1405
lclavicle 9.74045e-015 6.36111e-015
lhumerus -32.701 11.6863 77.1287
lradius 19.459
lwrist -8.48922
lhand -20.8648 -13.5806
lfingers 7.12502
lthumb 5.50493 16.3279
rfemur -23.301 6.64462 17.4571
rtibia 7.48362
rfoot -19.8135 -4.74247
rtoes -2.4762
lfemur -22.3205 -6.6035 -24.1591
ltibia 4.73059
lfoot -6.11974 -4.64857
ltoes -24.3437
357
root 3.66095 17.0931 15.9974 -151.742 -0.0729992 176.727
lowerback -29.368 -2.44087 -8.776
upperback -2.36786 -1.13214 -0.880228
thorax 12.8639 -1.34637 3.27817
lowerneck -0.973633 -2.64232 -1.97175
upperneck -6.23173 -2.99847 5.98301
head -1.66519 -1.45193 2.26866
rclavicle 3.47873e-015 -5.56597e-015
rhumerus -41.2704 -22.9332 -71.5834
rradius 27.0392
rwrist 1.1561
rhand -6.54746 -55.7814
rfingers 7.12502
rthumb 19.306 -84.8431
lclavicle 3.47873e-015 -5.56597e-015
lhumerus -32.782 11.5435 77.1491
lradius 19.5366
lwrist -8.38383
lhand -21.0735 -13.708
lfingers 7.12502
lthumb 5.30337 16.2056
rfemur -23.1293 6.66419 17.4472
rtibia 7.34837
rfoot -19.8145 -4.73414
rtoes -2.94956
lfemur -22.1861 -6.63042 -24.1779
ltibia 4.69632
lfoot -6.04066 -4.60175
ltoes -22.9689
358
root 3.66279 17.0943 15.9927 -151.843 -0.0601363 176.735
lowerback -29.251 -2.38693 -8.78894
upperback -2.4132 -1.0751 -0.87782
thorax 12.7533 -1.31726 3.31332
lowerneck -0.926026 -2.51641 -2.35392
upperneck -6.87071 -2.75194 6.27937
head -1.88471 -1.31691 2.44736
rclavicle 7.25564e-015 -3.57812e-015
rhumerus -41.1144 -22.8172 -71.6797
rradius 27.0313
rwrist 1.11065
rhand -6.64257 -55.2465
rfingers 7.12502
rthumb 19.2146 -84.3173
lclavicle 7.25564e-015 -3.57812e-015
lhumerus -32.7858 11.3027 77.2583
lradius 19.6536
lwrist -8.18196
lhand -21.0518 -13.5057
lfingers 7.12502
lthumb 5.32429 16.4074
rfemur -22.9467 6.78515 17.4401
rtibia 7.27106
rfoot -19.8548 -4.76527
rtoes -2.64342
lfemur -22.0797 -6.63166 -24.1574
ltibia 4.73567
lfoot -6.03319 -4.60056
ltoes -22.4166
